<svg width="278" height="80" viewBox="0 0 278 80" fill="none" xmlns="http://www.w3.org/2000/svg">
<path d="M130.304 60.8666C130.004 60.5674 129.537 60.3242 128.957 60.1372C128.371 59.9502 127.667 59.8567 126.844 59.8567L101.201 59.707L97.4793 64.7943L117.193 64.9066C117.741 64.919 118.128 65.0313 118.352 65.2432C118.577 65.4677 118.558 65.7295 118.315 66.0288L117.978 66.5151C117.729 66.8268 117.342 67.0886 116.819 67.3006C116.295 67.5001 115.759 67.5999 115.21 67.5999L101.388 67.525C100.584 67.525 99.6302 67.5625 98.7885 67.7308C97.9282 67.9178 97.3109 68.0861 96.5441 68.3854C95.7773 68.666 94.3371 69.2458 92.9718 70.8356L86.3882 79.57L117.941 79.7571L121.513 74.9877L99.8359 74.8568L100.547 73.4353C100.796 73.1236 101.195 72.8617 101.744 72.6498C102.28 72.4378 102.822 72.3318 103.371 72.3318L117.174 72.4066C117.997 72.4191 118.832 72.3381 119.68 72.1635C120.541 71.9889 121.345 71.752 122.093 71.4528C122.854 71.166 123.539 70.8168 124.15 70.4054C124.749 70.0126 125.74 68.9465 126.095 68.4789L130.304 63.2233C130.628 62.7744 130.784 62.3442 130.771 61.9327C130.771 61.5213 130.603 61.1659 130.304 60.8666Z" fill="#D3CDCD"/>
<path fill-rule="evenodd" clip-rule="evenodd" d="M165.261 63.4272L155.423 76.6131C155.061 77.0745 154.575 77.5047 153.964 77.9037C153.353 78.3151 152.673 78.6705 151.925 78.9698C151.164 79.2565 150.36 79.4872 149.512 79.6618C148.652 79.8363 147.81 79.9236 146.987 79.9236L127.274 79.8114C126.451 79.7927 125.759 79.6992 125.161 79.5122C124.575 79.3376 124.126 79.1007 123.814 78.8014C123.496 78.5022 123.346 78.1468 123.328 77.7353C123.328 77.3239 123.508 76.8874 123.87 76.4261L133.708 63.2402C134.045 62.7788 134.518 62.3424 135.129 61.931C135.728 61.5382 136.42 61.1828 137.168 60.8836C137.929 60.5968 138.733 60.3661 139.581 60.1915C140.441 60.0045 141.283 59.9297 142.087 59.9297L161.819 60.0419C162.63 60.0544 163.328 60.1479 163.914 60.3225C164.512 60.5095 164.961 60.7526 165.279 61.0519C165.591 61.3511 165.747 61.7065 165.747 62.118C165.747 62.5295 165.597 62.9596 165.261 63.4272ZM152.692 65.9896C152.692 65.9522 152.673 65.9335 152.636 65.8774C152.486 65.7839 152.224 65.6903 151.794 65.6903L144.313 65.6529C143.827 65.6529 143.34 65.7465 142.854 65.9335H142.873C142.386 66.1205 142.05 66.345 141.863 66.5881L136.345 73.9759C136.252 74.1069 136.233 74.1817 136.233 74.2191C136.233 74.2565 136.233 74.2752 136.289 74.3313C136.42 74.4248 136.701 74.5183 137.112 74.5183L144.612 74.5557C145.098 74.5745 145.566 74.4809 146.052 74.2752C146.539 74.0882 146.856 73.8637 147.044 73.6206L152.43 66.4198L152.58 66.2327C152.673 66.1018 152.692 66.027 152.692 65.9896ZM136.289 74.3313V74.35C136.364 74.4248 136.308 74.3687 136.289 74.35C136.289 74.35 136.289 74.3438 136.289 74.3313Z" fill="#D3CDCD"/>
<path d="M136.289 74.3496C136.364 74.4244 136.308 74.3683 136.289 74.3496Z" fill="#050505"/>
<path fill-rule="evenodd" clip-rule="evenodd" d="M200.797 62.1923C200.797 62.6038 200.635 63.0402 200.311 63.5016L190.454 76.6875C190.105 77.1488 189.625 77.5852 189.014 77.9967C188.403 78.3957 187.717 78.7448 186.957 79.0441C186.209 79.3309 185.404 79.5615 184.544 79.7361C183.696 79.9107 182.861 79.998 182.038 79.998L162.324 79.8857C161.501 79.867 160.809 79.7735 160.211 79.5865C159.625 79.4119 159.176 79.175 158.864 78.8758C158.552 78.5765 158.39 78.2211 158.378 77.8097C158.378 77.3982 158.565 76.968 158.902 76.5004L168.758 63.3145C169.095 62.847 169.563 62.4168 170.161 62.0053C170.784 61.6063 171.47 61.2572 172.218 60.9579C172.979 60.6711 173.783 60.4404 174.631 60.2659C175.492 60.0913 176.327 60.0103 177.137 60.0227L196.869 60.1162C197.68 60.1287 198.378 60.2222 198.964 60.3968C199.563 60.5838 200.018 60.827 200.33 61.1262C200.629 61.4255 200.785 61.7809 200.797 62.1923ZM187.742 66.0639C187.742 66.0265 187.723 66.0078 187.686 65.9517C187.536 65.8582 187.275 65.7834 186.844 65.7834L179.363 65.7273C178.858 65.7273 178.391 65.8208 177.904 66.0078H177.923C177.437 66.1949 177.1 66.4193 176.913 66.6624L171.395 74.0503C171.302 74.1812 171.265 74.2747 171.265 74.2934C171.283 74.3308 171.283 74.3682 171.339 74.4243C171.339 74.4243 171.339 74.4181 171.339 74.4056C171.47 74.5179 171.732 74.5927 172.162 74.5927L179.644 74.6301C180.149 74.6488 180.616 74.5553 181.103 74.3495C181.589 74.1625 181.907 73.9381 182.094 73.6949L187.611 66.3071C187.723 66.1762 187.742 66.1013 187.742 66.0639Z" fill="#D3CDCD"/>
<path d="M73.8009 65.5234C73.4642 65.5234 73.1089 65.5234 72.7722 65.5421C71.6687 65.5795 70.6026 65.6918 69.5552 66.1032C68.1899 66.6269 67.236 67.4312 66.731 68.0858L64.0939 71.4337C63.5328 72.1444 63.4953 72.743 63.9816 73.2292C64.5053 73.7716 65.5527 74.0522 67.1051 74.0709L83.882 74.1457C85.0042 74.1582 85.3471 74.4387 84.9107 74.9874L84.2748 75.829C83.9007 76.3028 83.1276 76.5647 81.9556 76.6146L65.9268 76.4649C65.9268 76.4649 60.1662 79.3265 59.9604 79.4575C59.8295 79.5323 59.8669 79.6258 60.0165 79.6258C60.0726 79.6258 86.6314 79.7754 86.6314 79.7754C87.8284 79.7754 89.0192 79.6071 90.2038 79.2704C91.7561 78.8216 92.9906 78.036 93.7387 77.1008L96.3572 73.7716C96.9058 73.0609 96.9432 72.4499 96.4694 71.9387C95.9831 71.4275 94.9606 71.1656 93.402 71.1532L76.0453 71.0596C74.9231 71.0596 74.5864 70.7791 75.0166 70.218L75.6899 69.4137C76.1201 68.8713 77.0366 68.5534 78.1588 68.5721C78.1588 68.5721 97.442 68.7217 97.7225 68.7217C97.8908 68.7217 97.9282 68.6469 97.7786 68.5534C97.5729 68.4412 92.1489 65.5608 92.1489 65.5608L73.8009 65.5234Z" fill="#EC1C24"/>
<path d="M63.3269 65.3921L55.3593 65.336C54.9104 65.336 54.3306 65.654 54.0314 66.028L48.4391 73.3224C48.1585 73.6964 47.6722 73.7525 47.373 73.4346L40.0226 65.8223C39.7233 65.5043 39.1248 65.2425 38.6759 65.2425L32.0362 65.2051C32.0237 65.2051 32.0113 65.2051 31.9988 65.2051C31.5686 65.2238 31.0075 65.523 30.727 65.8971L20.4775 79.3823L28.5013 79.4384C28.9315 79.4384 29.2868 79.4384 29.2868 79.4384C29.2868 79.4384 29.4177 79.4197 29.5674 79.4197C29.717 79.4197 30.0724 79.1017 30.3716 78.7276L36.3193 70.9657C36.6185 70.573 37.1048 70.5169 37.4041 70.8348L45.4465 78.9521C45.7458 79.27 46.3443 79.5132 46.7745 79.5132L52.479 79.5506C52.9092 79.5506 53.489 79.2513 53.7882 78.8586L63.5888 66.0841C63.8693 65.7101 63.7571 65.3921 63.3269 65.3921Z" fill="#EC1C24"/>
<path fill-rule="evenodd" clip-rule="evenodd" d="M268.794 37.0404C264.171 38.0828 259.956 39.8956 257.509 40.7567C251.119 42.932 238.611 48.9142 236.707 49.6394C234.804 50.4551 232.991 50.2738 231.768 49.8206C230.544 49.3674 228.278 46.8295 227.779 45.9684C227.236 45.062 227.326 43.929 228.278 42.6148C230.68 39.3517 232.583 37.0404 233.852 35.9074C235.937 34.0493 235.393 34.0493 232.357 35.2276C229.094 36.4513 221.299 41.2552 212.28 47.8719C208.337 50.8177 207.884 50.0925 205.029 48.6423C203.805 47.9625 202.536 47.0561 201.902 46.3763C201.403 45.7872 200.95 44.8354 202.038 43.2039C203.125 41.5271 206.887 38.8532 202.853 40.6207C198.865 42.3882 186.357 48.1891 183.91 48.9596C181.417 49.73 180.737 49.8659 178.29 49.3221C175.798 48.7783 173.078 46.6029 172.263 45.9231C171.628 45.3793 170.133 44.3369 171.447 43.4305C176.613 39.9409 179.106 37.9468 172.489 41.0739C168.274 43.1133 162.247 47.1921 159.664 48.5064C157.67 49.5034 156.899 50.1379 153.727 50.4098C150.6 50.6364 134.239 51.2709 132.653 50.999C131.022 50.6817 130.342 49.73 131.158 49.0049C132.653 47.6 134.421 46.6482 135.463 45.9684C136.415 45.334 137.729 44.9261 139.542 44.7901C141.354 44.6542 154.905 44.1103 156.355 44.065C159.029 43.9744 157.579 42.7054 156.627 41.799C155.676 40.8473 150.237 36.3153 149.014 35.9981C147.79 35.6355 147.654 35.2729 146.158 35.9981C144.618 36.7232 140.357 39.3517 134.783 42.5694C129.163 45.7418 123.997 49.2315 122.955 50.0019C120.87 51.5881 121.006 51.4068 118.695 50.999C117.063 50.6364 113.211 48.9142 111.942 48.1891C110.537 47.3734 112.214 45.6512 112.803 44.7901C113.347 43.8837 114.888 41.5271 115.839 40.6207C116.791 39.7143 119.012 38.1734 115.477 39.9409C113.302 41.0739 101.111 48.597 99.4337 49.5034C97.6662 50.4098 96.5785 51.4068 94.4032 51.2709C92.2278 51.1802 89.1008 49.0049 88.149 48.3704C87.1973 47.7812 86.6082 47.5093 87.4239 46.5576C89.1914 44.3823 95.083 38.6719 91.8653 40.4847C88.6476 42.2522 75.0516 50.2738 72.831 51.1349C70.7009 51.9507 70.2024 52.4492 68.0271 51.5881C65.8064 50.7723 63.7217 49.594 62.6793 48.7783C61.9089 48.1438 61.1838 47.9172 61.9542 46.8295C67.7551 39.0798 76.6831 33.2789 75.4142 33.3242C75.097 33.3695 71.7886 33.4148 71.426 33.6867C68.0271 36.1793 63.6764 37.8562 59.0537 39.9409C53.2075 42.5241 27.6471 50.6364 26.0156 51.0896C24.6107 51.4522 4.71529 75.3811 3.89953 74.6559C2.99313 73.9308 3.49165 70.3959 1.90546 69.4895C0.0473492 68.4471 0.727143 64.5949 0.727143 64.0058C0.727143 62.6915 23.3417 41.4818 25.925 38.3094C25.925 38.1281 11.8758 38.7173 11.8305 38.4907C10.6069 34.7744 0.409909 34.4572 0.455229 32.871C0.455229 32.4178 27.8737 32.1459 31.9072 31.602C37.6628 24.3509 39.9741 21.0878 41.0618 20.9972C42.512 20.8159 43.1918 24.2602 48.3583 26.9341C49.4459 27.4779 47.3159 30.1065 47.3159 30.1065C47.3159 30.1065 67.7551 28.7469 70.565 28.8375C73.2842 29.0188 75.2329 29.608 73.828 31.5567C73.7827 31.6474 77.6802 31.5567 77.7708 31.4661C78.6319 30.6956 79.7649 29.608 80.2634 29.1095C80.6713 28.7016 81.6683 28.6109 82.1215 28.5656C84.5235 28.339 89.8259 28.0218 91.5027 27.9765C93.3608 27.9765 93.2702 28.7922 92.4091 29.472C90.2338 31.2395 84.1156 36.2247 79.9462 41.3005C78.4053 43.1133 79.1757 43.4305 82.2575 41.935C90.9136 37.7655 98.1194 32.871 103.286 28.5203C104.645 27.3873 104.6 27.5232 105.96 27.342C107.274 27.206 112.622 26.8888 114.344 26.8435C116.021 26.8435 115.658 28.2937 114.933 29.4267C114.163 30.5597 103.15 42.2975 102.289 43.2492C101.518 43.9744 100.748 45.2886 103.15 43.929C105.507 42.5241 118.151 35.1823 119.964 34.0946C121.776 32.9616 126.172 30.2424 127.441 28.7922C128.937 27.0247 148.832 2.68795 149.829 1.37368C150.69 0.331318 151.189 -0.620397 151.914 0.5126C154.543 4.54607 158.939 7.94506 159.482 9.16869C159.936 10.2564 147.926 22.9006 143.303 27.7952C141.445 29.7439 135.055 36.27 133.831 37.6296C132.608 39.0345 131.384 41.0739 134.511 39.2158C137.004 37.7202 142.034 34.9104 145.932 32.4178C146.884 31.8286 149.014 29.7439 149.331 29.5173C150.826 28.3843 153.183 26.9341 155.766 26.8435C158.349 26.7075 177.066 26.5715 179.242 26.7075C181.463 26.8434 182.369 27.3873 180.556 28.8375C178.698 30.2878 176.84 30.6503 175.979 31.1942C175.118 31.7833 174.619 31.9193 172.716 32.0552C170.812 32.1912 159.664 32.8257 158.349 32.7804C156.99 32.735 154.814 33.5055 156.401 34.5025C158.032 35.5902 165.827 39.669 166.96 39.8503C168.093 40.0315 170.359 39.0798 172.489 38.3547C174.574 37.5843 181.825 34.004 185.541 32.3272C189.258 30.6503 202.763 26.1183 211.6 25.7558C224.244 25.2572 226.737 28.339 224.471 30.5597C222.432 32.5538 219.486 35.4996 217.582 37.6749C216.313 39.0798 215.724 40.0769 218.172 38.8985C220.619 37.7202 231.314 32.871 232.991 32.1006C234.713 31.3301 233.988 29.7892 233.172 28.1577C232.357 26.5262 232.538 26.7075 235.393 26.7075C240.197 26.6622 252.071 26.6169 253.612 26.8435C255.107 27.0701 256.603 27.5686 254.745 29.3814C252.977 31.1488 247.222 36.2247 246.134 37.4936C245.046 38.8079 245.363 39.3971 248.355 38.6266C251.3 37.8562 256.739 36.3153 262.721 35.4542C264.806 35.137 268.25 34.6385 272.057 34.2306C282.571 33.1882 276 35.4542 268.794 37.0404ZM52.5277 35.6808C48.9474 35.7262 44.642 36.1793 42.0588 36.4513C40.0194 38.6719 35.4421 42.1163 31.2727 46.2404C44.5967 42.7961 51.1681 39.8956 54.2952 38.0828C57.6941 36.134 56.2892 35.6355 52.5277 35.6808ZM203.896 30.5597C200.633 31.4208 194.061 34.2759 190.391 36.6325C186.72 38.9439 190.708 39.4424 194.243 38.8532C197.778 38.2187 206.207 34.8198 209.289 32.2365C211.283 30.6503 209.923 29.0188 203.896 30.5597Z" fill="white"/>
</svg>
